<?xml version="1.0" encoding="utf-8"?>
<!DOCTYPE svg PUBLIC "-//W3C//DTD SVG 20010904//EN" "http://www.w3.org/TR/2001/REC-SVG-20010904/DTD/svg10.dtd">
<svg version="1.0" xmlns="http://www.w3.org/2000/svg" width="21px" height="20px" viewBox="0 0 21 20" preserveAspectRatio="xMidYMid meet">
 <g fill="#ff5656">
  <path d="M5.1 18.6 c-4.7 -2.6 -6.3 -8.4 -3.7 -13.5 2.2 -4.1 8.4 -6.3 13 -4.5 3 1.2 1.6 1.9 -3 1.6 -3.7 -0.3 -5 0 -7 1.9 -5.5 5.1 -1.6 14.1 6.1 14.1 5.1 0 8.5 -3.3 8.5 -8.4 0 -2.1 -0.4 -3.8 -0.9 -3.8 -0.5 0 -2.3 2.3 -4.1 5 -1.8 2.8 -3.4 5 -3.5 5 -0.2 0 -1.3 -1.4 -2.5 -3.1 -2.6 -3.6 -1.9 -5.2 0.8 -1.9 l1.8 2.3 2.7 -4.6 c1.5 -2.5 3.2 -4.9 3.8 -5.2 1.7 -1.1 3.8 2.7 3.9 6.8 0 7.6 -8.9 12.2 -15.9 8.3z"/>
 </g>
</svg>